<svg width="100%" height="100%" viewBox="0 0 100 100" version="1.1" xmlns="http://www.w3.org/2000/svg" xmlns:xlink="http://www.w3.org/1999/xlink" xml:space="preserve" style="
            fill-rule: evenodd;
            clip-rule: evenodd;
            stroke-linejoin: round;
            stroke-miterlimit: 1.41421;
          " class="certification-list__icon">
  <title>Cotton</title>
  <g id="Layer3">
    <path d="M100,87.898c0,-1.549 -1.161,-2.45 -2.456,-2.45c-1.303,0 -2.463,0.901 -2.463,2.45c0,1.549 1.16,2.449 2.463,2.449c1.295,0 2.456,-0.9 2.456,-2.449Zm-0.707,0c0,1.128 -0.804,1.885 -1.749,1.885l0,-0.006c-0.973,0.006 -1.756,-0.751 -1.756,-1.879c0,-1.127 0.783,-1.88 1.756,-1.88c0.945,0 1.749,0.753 1.749,1.88Zm-1.737,-1.323c0.681,0 1.083,0.196 1.083,0.798c0,0.486 -0.285,0.661 -0.635,0.687l0.673,1.153l-0.666,0l-0.61,-1.108l-0.266,0l0,1.108l-0.564,0l0,-2.638l0.985,0Zm0.079,1.082c0.252,0 0.401,-0.05 0.401,-0.343c0,-0.272 -0.292,-0.291 -0.505,-0.291l-0.396,0l0,0.634l0.5,0Zm-8.616,-0.876l-78.687,0c-4.602,0 -8.332,-3.73 -8.332,-8.332l0,-50.944c0,-4.6 3.73,-8.331 8.332,-8.331l78.687,0c4.601,0 8.332,3.731 8.332,8.331l0,50.944c0,4.602 -3.731,8.332 -8.332,8.332Zm-43.944,-16.2l0,6.364c0,0.868 -0.405,3.126 -3.702,3.126c-1.273,0 -4.262,-0.224 -2.999,-0.955c0.974,-1.11 1.668,-2.518 1.668,-4.717c-0.058,-5.032 -3.992,-6.71 -8.216,-6.71c-3.934,0 -8.1,1.678 -8.158,6.71c0,1.004 0.144,2.729 0.983,3.704c-1.14,2.282 -4.516,2.106 -4.572,2.103c-2.979,-0.104 -4.742,-2.855 -4.742,-5.807c0,-2.418 1.241,-5.835 4.599,-5.869c2.254,-0.023 2.764,0.795 3.434,1.753c0.54,-0.695 0.819,-1.148 1.34,-1.669c-0.626,-0.367 -2.621,-0.876 -4.851,-0.883c-4.282,0 -7.869,1.781 -7.869,6.668c0,8.737 10.694,7.175 14.167,5.439c1.041,1.158 3.085,1.322 4.531,1.322c5.323,0 6.924,0.009 12.247,0.009c2.488,0 5.381,-2.373 5.381,-4.686l0,-5.902l2.546,0l0,5.844c0,2.371 3.355,4.744 5.728,4.744l12.728,0c3.414,0 6.307,-3.143 6.307,-6.537c-0.146,-1.658 0.009,-2.575 0.463,-3.703c0.858,-2.922 6.769,-3.587 7.174,1.85c0,3.241 0,5.091 0,8.39l3.241,0l0,-7.927c0,-5.439 -5.311,-5.553 -7.291,-5.553c-3.124,0 -4.474,1.176 -5.284,2.506c-0.771,-1.041 -1.852,-2.469 -6.693,-2.506c-5.728,0 -8.273,3.066 -8.273,6.248c0,2.893 1.215,4.281 1.678,4.859c0.579,0.579 -1.215,1.216 -2.662,1.216c-1.909,0 -3.298,-0.347 -3.876,-3.01l0,-6.421l4.166,0.058l0,-2.95l-4.166,0c0,-0.019 0.002,-2.78 0.578,-3.472c0.898,-1.08 3.404,0.271 5.439,0.694c12.498,1.157 18.283,-12.498 11.572,-20.83c2.777,-8.331 -3.588,-17.588 -13.423,-16.662c-1.042,-2.777 -5.787,-4.629 -8.68,-4.629c-2.892,0 -7.636,1.852 -8.678,4.629c-9.836,-0.926 -16.2,8.331 -13.423,16.662c-6.712,8.332 -0.926,21.987 11.571,20.83c2.055,-0.357 4.948,-1.736 5.438,-0.694c0.578,0.693 0.579,3.466 0.579,3.472l-4.165,0l0,2.892l4.165,0Zm27.069,3.818c0,-2.391 -1.495,-5.717 -4.909,-5.717c-3.028,0 -4.85,3.019 -4.85,5.717c0,2.778 1.736,5.786 4.85,5.786c3.482,0 4.909,-2.699 4.909,-5.786Zm-35.409,0c0,-2.391 -1.496,-5.717 -4.909,-5.717c-3.028,0 -4.851,3.019 -4.851,5.717c0,2.778 1.736,5.786 4.851,5.786c3.481,0 4.909,-2.699 4.909,-5.786Zm10.655,-20.77c0,-2.777 1.273,-4.109 2.198,-6.365c0.898,2.256 2.2,3.588 2.2,6.365c0,3.588 -1.361,3.673 -0.926,5.496c0.462,0.926 1.33,0.81 2.024,0.462c4.629,-2.777 7.754,-9.141 14.234,-7.752c-3.76,1.851 -4.745,6.017 -6.886,7.985c-2.371,1.794 -7.29,0.693 -8.216,1.851c-1.504,0.983 -1.156,3.703 -1.156,6.018l-2.546,0c0,-2.315 0.347,-5.035 -1.157,-6.018c-0.927,-1.158 -5.844,-0.057 -8.216,-1.851c-2.142,-1.968 -3.125,-6.134 -6.885,-7.985c6.479,-1.389 9.604,4.975 14.233,7.752c0.665,0.348 1.562,0.464 2.025,-0.462c0.347,-1.88 -0.926,-1.908 -0.926,-5.496Z"></path>
  </g>
</svg>
