<svg xmlns="http://www.w3.org/2000/svg" width="99.4px" height="24.6px" viewBox="0 0 99.4 24.6" fill="#514945">
  <polygon points="0,0.4 3.4,0.4 3.4,22.5 14.6,22.5 14.6,24.1 0,24.1"/>
  <polygon points="56.5,0.4 59.9,0.4 59.9,22.5 71.1,22.5 71.1,24.1 56.5,24.1"/>
  <path d="M99.4,24.1H96L92,15h-8.5l-3.6,9.1H78L87.7,0h1.2L99.4,24.1z M84.2,13.4h7.1l-3.7-8.5
    L84.2,13.4z"/>
  <path d="M21.8,7.1c0.6-1.5,1.5-2.8,2.7-3.9c1.2-1.1,2.5-1.9,4.1-2.4C30.3,0.3,32,0,33.9,0
    c1.9,0,3.7,0.3,5.3,0.8c1.6,0.6,3,1.4,4.1,2.4c1.2,1.1,2,2.4,2.7,3.9c0.6,1.5,1,3.3,1,5.2c0,2-0.3,3.7-1,5.2
    c-0.6,1.5-1.5,2.8-2.7,3.9c-1.1,1.1-2.5,1.8-4.1,2.4c-1.6,0.5-3.4,0.8-5.3,0.8c-1.9,0-3.7-0.3-5.3-0.8c-1.6-0.5-3-1.3-4.1-2.4
    c-1.1-1.1-2-2.4-2.7-3.9c-0.6-1.5-1-3.3-1-5.2C20.9,10.4,21.2,8.7,21.8,7.1 M42.8,7.4c-0.5-1.4-1.2-2.5-2-3.5
    c-0.9-0.9-1.9-1.6-3.1-2c-1.2-0.4-2.4-0.7-3.8-0.7c-1.3,0-2.6,0.2-3.8,0.7c-1.2,0.4-2.2,1.1-3.1,2c-0.9,0.9-1.6,2.1-2,3.5
    c-0.5,1.4-0.7,3-0.7,5c0,1.9,0.2,3.6,0.7,5c0.5,1.4,1.2,2.5,2,3.4c0.9,0.9,1.9,1.6,3.1,2c1.2,0.4,2.4,0.7,3.8,0.7
    c1.4,0,2.6-0.2,3.8-0.7c1.2-0.4,2.2-1.1,3.1-2c0.9-0.9,1.6-2.1,2-3.4c0.5-1.4,0.7-3,0.7-5C43.6,10.4,43.3,8.8,42.8,7.4"/>
</svg>
