<svg id="Layer_1" data-name="Layer 1" xmlns="http://www.w3.org/2000/svg" viewBox="0 0 465.13 100"><defs><style>.cls-1{fill:#524945;}</style></defs><polygon class="cls-1" points="0 1.82 13.68 1.82 13.68 91.5 58.78 91.48 58.78 98.17 0 98.17 0 1.82"/><polygon class="cls-1" points="227.45 1.82 241.12 1.82 241.1 91.5 286.23 91.48 286.23 98.17 227.45 98.17 227.45 1.82"/><path class="cls-1" d="M362.78,82h28.68L376.65,47.58ZM424,125.64H410.26l-16-37.17h-34l-14.65,37.17H338l39.09-98.18h4.66Z" transform="translate(-23.83 -27.46)"/><path class="cls-1" d="M196.31,57.54a38.36,38.36,0,0,0-8.2-14,33.1,33.1,0,0,0-12.36-8.2,45.22,45.22,0,0,0-30.56,0,33.15,33.15,0,0,0-12.35,8.2,38.5,38.5,0,0,0-8.2,14,61.39,61.39,0,0,0-2.94,20.13,61.35,61.35,0,0,0,2.94,20.13,38.12,38.12,0,0,0,8.2,14A32.81,32.81,0,0,0,145.19,120a45.22,45.22,0,0,0,30.56,0,32.77,32.77,0,0,0,12.36-8.21,38,38,0,0,0,8.2-14,61.6,61.6,0,0,0,2.95-20.13,61.65,61.65,0,0,0-2.95-20.13M111.8,56.43a44.35,44.35,0,0,1,10.81-15.79,46.61,46.61,0,0,1,16.61-9.82,68.91,68.91,0,0,1,42.51,0,46.69,46.69,0,0,1,16.61,9.82,44.45,44.45,0,0,1,10.8,15.79A55.17,55.17,0,0,1,213,77.67a55.22,55.22,0,0,1-3.85,21.25,43.3,43.3,0,0,1-27.41,25.39,73.28,73.28,0,0,1-42.51,0A43.35,43.35,0,0,1,111.8,98.92,55.41,55.41,0,0,1,108,77.67a55.36,55.36,0,0,1,3.85-21.24" transform="translate(-23.83 -27.46)"/><path class="cls-1" d="M443.91,80.81h45v-6.7l-45.12,0S443.91,77.09,443.91,80.81Z" transform="translate(-23.83 -27.46)"/><path class="cls-1" d="M463.05,55V100h6.69V54.9S466.76,55,463.05,55Z" transform="translate(-23.83 -27.46)"/></svg>